<svg xmlns="http://www.w3.org/2000/svg" viewBox="0 0 2957.9 2957.9" width="2957.9" height="2957.9" role="img" aria-label="Events in Bloom monogram" xmlns:c2pa="http://c2pa.org/manifest"><metadata><c2pa:manifest>AAAWgmp1bWIAAAAeanVtZGMycGEAEQAQgAAAqgA4m3EDYzJwYQAAABZcanVtYgAAAEdqdW1kYzJtYQARABCAAACqADibcQN1cm46YzJwYTpkMzI1OTJkYy0yZmZhLTQwZDgtODczMS1lZmJhNzA0N2EyMjQAAAADl2p1bWIAAAApanVtZGMyYXMAEQAQgAAAqgA4m3EDYzJwYS5hc3NlcnRpb25zAAAAALxqdW1iAAAARGp1bWRjYm9yABEAEIAAAKoAOJtxE2MycGEuaW5ncmVkaWVudC52MwAAAAAYYzJzaJ7nNq6D4oOU0A/r9ptNYnQAAABwY2JvcqNpZGM6Zm9ybWF0bWltYWdlL3N2Zyt4bWxqaW5zdGFuY2VJRHgseG1wOmlpZDozMzg0NzE0MS02ODMxLTQwNGEtOTExZC1kMTMxNmRmYTBkOWZscmVsYXRpb25zaGlwaHBhcmVudE9mAAAB4mp1bWIAAABBanVtZGNib3IAEQAQgAAAqgA4m3ETYzJwYS5hY3Rpb25zLnYyAAAAABhjMnNoJc78SLqNlsOW7tp5QKCHIwAAAZljYm9yomdhY3Rpb25zgqJmYWN0aW9ua2MycGEub3BlbmVkanBhcmFtZXRlcnOha2luZ3JlZGllbnRzgaJjdXJseC1zZWxmI2p1bWJmPWMycGEuYXNzZXJ0aW9ucy9jMnBhLmluZ3JlZGllbnQudjNkaGFzaFggUhSzQklDbI+xuGZu0e6ylmIbqfr7+Td+CGeMvEAiLEukZmFjdGlvbngdY29tLmFudGhyb3BpYy5jbGF1ZGUucHJvdmlkZWRqcGFyYW1ldGVyc6F4H2NvbS5hbnRocm9waWMub3JpZ2luLWNvbmZpZGVuY2VndW5rbm93bmtkZXNjcmlwdGlvbnhmQ2xhdWRlIHByb3ZpZGVkIHRoaXMgZmlsZSBhdCB0aGUgcmVxdWVzdCBvZiBhIHVzZXIgYW5kIG1heSBoYXZlIGNyZWF0ZWQgb3IgbW9kaWZpZWQgdGhlIGZpbGUgY29udGVudHMubXNvZnR3YXJlQWdlbnShZG5hbWVmQ2xhdWRlcmFsbEFjdGlvbnNJbmNsdWRlZPUAAADIanVtYgAAAEBqdW1kY2JvcgARABCAAACqADibcRNjMnBhLmhhc2guZGF0YQAAAAAYYzJzaBfb6NdtULQILZODbP9jjv0AAACAY2JvcqVjYWxnZnNoYTI1NmNwYWRNAAAAAAAAAAAAAAAAAGRoYXNoWCDLm3/RWdmsTN8QgobeJ8Oci10TFCMS4xcR3PutM+tfymRuYW1lbmp1bWJmIG1hbmlmZXN0amV4Y2x1c2lvbnOBomVzdGFydBjTZmxlbmd0aBkeBAAAAj5qdW1iAAAAJ2p1bWRjMmNsABEAEIAAAKoAOJtxA2MycGEuY2xhaW0udjIAAAACD2Nib3KlY2FsZ2ZzaGEyNTZpc2lnbmF0dXJleE1zZWxmI2p1bWJmPS9jMnBhL3VybjpjMnBhOmQzMjU5MmRjLTJmZmEtNDBkOC04NzMxLWVmYmE3MDQ3YTIyNC9jMnBhLnNpZ25hdHVyZWppbnN0YW5jZUlEeCx4bXA6aWlkOjc2NzM2NzY2LWZlODUtNGJlYS1iMzc0LTNkOGZmMGM4OTA2OHJjcmVhdGVkX2Fzc2VydGlvbnODomN1cmx4LXNlbGYjanVtYmY9YzJwYS5hc3NlcnRpb25zL2MycGEuaW5ncmVkaWVudC52M2RoYXNoWCBSFLNCSUNsj7G4Zm7R7rKWYhup+vv5N34IZ4y8QCIsS6JjdXJseCpzZWxmI2p1bWJmPWMycGEuYXNzZXJ0aW9ucy9jMnBhLmFjdGlvbnMudjJkaGFzaFgggyXkF26fMshDJoL49b9vd2RZmNynUqKa0p+YgOOWUAmiY3VybHgpc2VsZiNqdW1iZj1jMnBhLmFzc2VydGlvbnMvYzJwYS5oYXNoLmRhdGFkaGFzaFggoXechOTf2afM4a26KDdxJnrGwhlNIbYbpTeHwGDPA0t0Y2xhaW1fZ2VuZXJhdG9yX2luZm+jZG5hbWVvQW50aHJvcGljIEZpbGVzZ3ZlcnNpb25lMS4wLjBrc3BlY1ZlcnNpb25lMi40LjAAABA4anVtYgAAAChqdW1kYzJjcwARABCAAACqADibcQNjMnBhLnNpZ25hdHVyZQAAABAIY2JvctKEWQISogEmGCFZAgowggIGMIIBjaADAgECAhRA5aAK7sI50L64g/oGQgU9Z1UTADAKBggqhkjOPQQDAzBJMRcwFQYDVQQKEw5BbnRocm9waWMsIFBCQzEuMCwGA1UEAxMlQW50aHJvcGljIENvbnRlbnQgQ3JlZGVudGlhbHMgUm9vdCBDQTAeFw0yNjA4MDcxODQzNTZaFw0yODA4MDYxOTQzNTZaMEQxFzAVBgNVBAoTDkFudGhyb3BpYywgUEJDMSkwJwYDVQQDEyBBbnRocm9waWMgQ2xhdWRlIENvbnRlbnQgU2lnbmluZzBZMBMGByqGSM49AgEGCCqGSM49AwEHA0IABJh6CmvLUBgFFNU0vUKlOVtE6djd17L5SuwX0LemFisBM3dkd/3cyjxFA3Qo5S46fX0/ihY0VZ7mfb9KF703t5OjWDBWMA4GA1UdDwEB/wQEAwIHgDAVBgNVHSUEDjAMBgorBgEEAYPoXgIBMAwGA1UdEwEB/wQCMAAwHwYDVR0jBBgwFoAUzlHiBIFOZFsj+OPEz5o+nMHXXMIwCgYIKoZIzj0EAwMDZwAwZAIwMXMdFJ4BetLLVY7ORuE9noqbbAZOZn/aArXyTwFAZfKrPzxF2vPoJNf1+UCdg1XGAjBwX1zd9WGqYkqmL5SFqw1QySjr1zJfpJM9+1rdDwSPLMOPOjKuiXjoU/pUUeG9RwmhY3BhZFkNngAAAAAAAAAAAAAAAAAAAAAAAAAAAAAAAAAAAAAAAAAAAAAAAAAAAAAAAAAAAAAAAAAAAAAAAAAAAAAAAAAAAAAAAAAAAAAAAAAAAAAAAAAAAAAAAAAAAAAAAAAAAAAAAAAAAAAAAAAAAAAAAAAAAAAAAAAAAAAAAAAAAAAAAAAAAAAAAAAAAAAAAAAAAAAAAAAAAAAAAAAAAAAAAAAAAAAAAAAAAAAAAAAAAAAAAAAAAAAAAAAAAAAAAAAAAAAAAAAAAAAAAAAAAAAAAAAAAAAAAAAAAAAAAAAAAAAAAAAAAAAAAAAAAAAAAAAAAAAAAAAAAAAAAAAAAAAAAAAAAAAAAAAAAAAAAAAAAAAAAAAAAAAAAAAAAAAAAAAAAAAAAAAAAAAAAAAAAAAAAAAAAAAAAAAAAAAAAAAAAAAAAAAAAAAAAAAAAAAAAAAAAAAAAAAAAAAAAAAAAAAAAAAAAAAAAAAAAAAAAAAAAAAAAAAAAAAAAAAAAAAAAAAAAAAAAAAAAAAAAAAAAAAAAAAAAAAAAAAAAAAAAAAAAAAAAAAAAAAAAAAAAAAAAAAAAAAAAAAAAAAAAAAAAAAAAAAAAAAAAAAAAAAAAAAAAAAAAAAAAAAAAAAAAAAAAAAAAAAAAAAAAAAAAAAAAAAAAAAAAAAAAAAAAAAAAAAAAAAAAAAAAAAAAAAAAAAAAAAAAAAAAAAAAAAAAAAAAAAAAAAAAAAAAAAAAAAAAAAAAAAAAAAAAAAAAAAAAAAAAAAAAAAAAAAAAAAAAAAAAAAAAAAAAAAAAAAAAAAAAAAAAAAAAAAAAAAAAAAAAAAAAAAAAAAAAAAAAAAAAAAAAAAAAAAAAAAAAAAAAAAAAAAAAAAAAAAAAAAAAAAAAAAAAAAAAAAAAAAAAAAAAAAAAAAAAAAAAAAAAAAAAAAAAAAAAAAAAAAAAAAAAAAAAAAAAAAAAAAAAAAAAAAAAAAAAAAAAAAAAAAAAAAAAAAAAAAAAAAAAAAAAAAAAAAAAAAAAAAAAAAAAAAAAAAAAAAAAAAAAAAAAAAAAAAAAAAAAAAAAAAAAAAAAAAAAAAAAAAAAAAAAAAAAAAAAAAAAAAAAAAAAAAAAAAAAAAAAAAAAAAAAAAAAAAAAAAAAAAAAAAAAAAAAAAAAAAAAAAAAAAAAAAAAAAAAAAAAAAAAAAAAAAAAAAAAAAAAAAAAAAAAAAAAAAAAAAAAAAAAAAAAAAAAAAAAAAAAAAAAAAAAAAAAAAAAAAAAAAAAAAAAAAAAAAAAAAAAAAAAAAAAAAAAAAAAAAAAAAAAAAAAAAAAAAAAAAAAAAAAAAAAAAAAAAAAAAAAAAAAAAAAAAAAAAAAAAAAAAAAAAAAAAAAAAAAAAAAAAAAAAAAAAAAAAAAAAAAAAAAAAAAAAAAAAAAAAAAAAAAAAAAAAAAAAAAAAAAAAAAAAAAAAAAAAAAAAAAAAAAAAAAAAAAAAAAAAAAAAAAAAAAAAAAAAAAAAAAAAAAAAAAAAAAAAAAAAAAAAAAAAAAAAAAAAAAAAAAAAAAAAAAAAAAAAAAAAAAAAAAAAAAAAAAAAAAAAAAAAAAAAAAAAAAAAAAAAAAAAAAAAAAAAAAAAAAAAAAAAAAAAAAAAAAAAAAAAAAAAAAAAAAAAAAAAAAAAAAAAAAAAAAAAAAAAAAAAAAAAAAAAAAAAAAAAAAAAAAAAAAAAAAAAAAAAAAAAAAAAAAAAAAAAAAAAAAAAAAAAAAAAAAAAAAAAAAAAAAAAAAAAAAAAAAAAAAAAAAAAAAAAAAAAAAAAAAAAAAAAAAAAAAAAAAAAAAAAAAAAAAAAAAAAAAAAAAAAAAAAAAAAAAAAAAAAAAAAAAAAAAAAAAAAAAAAAAAAAAAAAAAAAAAAAAAAAAAAAAAAAAAAAAAAAAAAAAAAAAAAAAAAAAAAAAAAAAAAAAAAAAAAAAAAAAAAAAAAAAAAAAAAAAAAAAAAAAAAAAAAAAAAAAAAAAAAAAAAAAAAAAAAAAAAAAAAAAAAAAAAAAAAAAAAAAAAAAAAAAAAAAAAAAAAAAAAAAAAAAAAAAAAAAAAAAAAAAAAAAAAAAAAAAAAAAAAAAAAAAAAAAAAAAAAAAAAAAAAAAAAAAAAAAAAAAAAAAAAAAAAAAAAAAAAAAAAAAAAAAAAAAAAAAAAAAAAAAAAAAAAAAAAAAAAAAAAAAAAAAAAAAAAAAAAAAAAAAAAAAAAAAAAAAAAAAAAAAAAAAAAAAAAAAAAAAAAAAAAAAAAAAAAAAAAAAAAAAAAAAAAAAAAAAAAAAAAAAAAAAAAAAAAAAAAAAAAAAAAAAAAAAAAAAAAAAAAAAAAAAAAAAAAAAAAAAAAAAAAAAAAAAAAAAAAAAAAAAAAAAAAAAAAAAAAAAAAAAAAAAAAAAAAAAAAAAAAAAAAAAAAAAAAAAAAAAAAAAAAAAAAAAAAAAAAAAAAAAAAAAAAAAAAAAAAAAAAAAAAAAAAAAAAAAAAAAAAAAAAAAAAAAAAAAAAAAAAAAAAAAAAAAAAAAAAAAAAAAAAAAAAAAAAAAAAAAAAAAAAAAAAAAAAAAAAAAAAAAAAAAAAAAAAAAAAAAAAAAAAAAAAAAAAAAAAAAAAAAAAAAAAAAAAAAAAAAAAAAAAAAAAAAAAAAAAAAAAAAAAAAAAAAAAAAAAAAAAAAAAAAAAAAAAAAAAAAAAAAAAAAAAAAAAAAAAAAAAAAAAAAAAAAAAAAAAAAAAAAAAAAAAAAAAAAAAAAAAAAAAAAAAAAAAAAAAAAAAAAAAAAAAAAAAAAAAAAAAAAAAAAAAAAAAAAAAAAAAAAAAAAAAAAAAAAAAAAAAAAAAAAAAAAAAAAAAAAAAAAAAAAAAAAAAAAAAAAAAAAAAAAAAAAAAAAAAAAAAAAAAAAAAAAAAAAAAAAAAAAAAAAAAAAAAAAAAAAAAAAAAAAAAAAAAAAAAAAAAAAAAAAAAAAAAAAAAAAAAAAAAAAAAAAAAAAAAAAAAAAAAAAAAAAAAAAAAAAAAAAAAAAAAAAAAAAAAAAAAAAAAAAAAAAAAAAAAAAAAAAAAAAAAAAAAAAAAAAAAAAAAAAAAAAAAAAAAAAAAAAAAAAAAAAAAAAAAAAAAAAAAAAAAAAAAAAAAAAAAAAAAAAAAAAAAAAAAAAAAAAAAAAAAAAAAAAAAAAAAAAAAAAAAAAAAAAAAAAAAAAAAAAAAAAAAAAAAAAAAAAAAAAAAAAAAAAAAAAAAAAAAAAAAAAAAAAAAAAAAAAAAAAAAAAAAAAAAAAAAAAAAAAAAAAAAAAAAAAAAAAAAAAAAAAAAAAAAAAAAAAAAAAAAAAAAAAAAAAAAAAAAAAAAAAAAAAAAAAAAAAAAAAAAAAAAAAAAAAAAAAAAAAAAAAAAAAAAAAAAAAAAAAAAAAAAAAAAAAAAAAAAAAAAAAAAAAAAAAAAAAAAAAAAAAAAAAAAAAAAAAAAAAAAAAAAAAAAAAAAAAAAAAAAAAAAAAAAAAAAAAAAAAAAAAAAAAAAAAAAAAAAAAAAAAAAAAAAAAAAAAAAAAAAAAAAAAAAAAAAAAAAAAAAAAAAAAAAAAAAAAAAAAAAAAAAAAAAAAAAAAAAAAAAAAAAAAAAAAAAAAAAAAAAAAAAAAAAAAAAAAAAAAAAAAAAAAAAAAAAAAAAAAAAAAAAAAAAAAAAAAAAAAAAAAAAAAAAAAAAAAAAAAAAAAAAAAAAAAAAAAAAAAAAAAAAAAAAAAAAAAAAAAAAAAAAAAAAAAAAAAAAAAAAAAAAAAAAAAAAAAAAAAAAAAAAAAAAAAAAAAAAAAAAAAAAAAAAAAAAAAAAAAAAAAAAAAAAAAAAAAAAAAAAAAAAAAAAAAAAAAAAAAAAAAAAAAAAAAAAAAAAAAAAAAAAAAAAAAAAAAAAAAAAAAAAAAAAAAAAAAAAAAAAAAAAAAAAAAAAAAAAAAAAAAAAAAAAAAAAAAAAAAAAAAAAAAAAAAAAAAAAAAAAAAAAAAAAAAAAAAAAAAAAAAAAAAAAAAAAAAAAAAAAAAAAAAAAAAAAAAAAAAAAAAAAAAAAAAAAAAAAAAAAAAAAAAAAAAAAAAAAAAAAAAAAAAAAAAAAAAAAAAAAAAAAAAAAAAAAAAAAAAAAAAAAAAAAAAAAAAAAAAAAAAAAAAAAAAAAAAAAAAAAAAAAAAAAAAAAAAAAAAAAAAAAAAAAAAAAAAAAAAAAAAAAAAAAAAAAAAAAAAAAAAAAAAAAAAAAAAAAAAAAAAAAAAAAAAAAAAAAAAAAAAAAAAAAAAAAAAAAAAAAAAAAAAAAAAAAAAAAAAAAAAAAAAAAAAAAAAAAAAAAAAAAAAAAAAAAAAAAAAAAAAAAAAAAAAAAAAAAAAAAAAAAAAAAAAAAAAAAAAAAAAAAAAAAAAAAAAAAAAAAAAAAAAAAAAAAAAAAAAAAAAAAAAAAAAAAAAAAAAAAAAAAAAAAAAAAAAAAAAAAAAAAAAAAAAAAAAAAAAAAAAAAAAAAAAAAAAAAAAAAAAAAAAAAAAAAAAAAAAAAAAAAAAAAAAAAAAAAAAAAAAAAAAAAAAAAAAAAAAAAAAAAAAAAAAAAAAAAAAAAAAAAAAAAAAAAAAAAAAAAAAAAAAAAAAAAAAAAAAAAAAAAAAAAAAAAAAAAAAAAAAAAAAAAAAPZYQM7Wf9tf7BNOPK/NJa4VvX69vxdvKKL72cIl+rYVH4hGBwxPZCEy/7xtgRJwQl4eeFZpBiC855zoV4ASbxyEOdc=</c2pa:manifest></metadata><rect width="2957.9" height="2957.9" fill="#14120F"></rect><g transform="translate(415.4 1847.9)"><path d="M326 59L326 59Q222 59 154.5 30Q87 1 54.5-46Q22-93 22-146L22-146Q22-206 53-255Q84-304 134.5-340Q185-376 246-397Q307-418 366-421L366-421Q314-440 281.5-473.5Q249-507 249-547L249-547Q249-588 274.5-625.5Q300-663 343-694.5Q386-726 440.5-749Q495-772 554-784.5Q613-797 668-797L668-797Q757-797 810-767Q863-737 863-690L863-690Q863-647 816.5-605Q770-563 688-545L688-545Q672-542 667-542L667-542Q656-542 656-551L656-551Q656-554 659.5-555.5Q663-557 675-561L675-561Q734-581 769-617.5Q804-654 804-695L804-695Q804-730 770.5-751.5Q737-773 670-773L670-773Q610-773 549-756Q488-739 437-708Q386-677 355-637Q324-597 324-550L324-550Q324-516 344-495Q364-474 395-461.5Q426-449 459.5-441.5Q493-434 521-425L521-425Q531-422 534-417Q537-412 537-407L537-407Q537-394 522.5-385Q508-376 482-376L482-376Q466-376 446.5-376.5Q427-377 405-377L405-377Q374-377 339.5-374Q305-371 264-358L264-358Q212-342 173.5-308Q135-274 114-233Q93-192 93-152L93-152Q93-100 117-58Q141-16 193 8.5Q245 33 330 33L330 33Q408 33 481 13Q554-7 616-38.5Q678-70 722-104L722-104Q758-133 780.5-163Q803-193 803-215L803-215Q803-243 764-249L764-249Q754-250 754-255L754-255Q754-263 768-263L768-263Q797-263 819.5-243.5Q842-224 842-195L842-195Q842-138 761-75L761-75Q712-36 641.5-6Q571 24 489.5 41.5Q408 59 326 59ZM923 0L923 0Q886 0 871-21.5Q856-43 856-71L856-71Q856-86 859.5-101.5Q863-117 868-130L868-130L935-301Q938-309 938-315L938-315Q938-325 933-332.5Q928-340 926-343L926-343L981-345Q996-346 1002.5-341.5Q1009-337 1009-331L1009-331Q1009-325 1002-309L1002-309Q992-285 975-249Q958-213 941.5-175Q925-137 913.5-104Q902-71 902-53L902-53Q902-40 908.5-31Q915-22 931-22L931-22Q952-22 972.5-38.5Q993-55 1011-81Q1029-107 1044.5-137Q1060-167 1071-193L1071-193Q1083-193 1083-184L1083-184Q1073-159 1057-127Q1041-95 1020.5-66.5Q1000-38 975.5-19Q951 0 923 0ZM1012-407L1012-407Q999-407 989.5-417Q980-427 980-441L980-441Q980-458 994-471.5Q1008-485 1025-485L1025-485Q1039-485 1049-476Q1059-467 1059-453L1059-453Q1059-435 1045-421Q1031-407 1012-407ZM1190 39L1190 39Q1168 39 1139.5 34.5Q1111 30 1084.5 19Q1058 8 1040.5-12.5Q1023-33 1023-64L1023-64Q1023-101 1056-131.5Q1089-162 1149-162L1149-162Q1193-162 1231-147.5Q1269-133 1305.5-112.5Q1342-92 1381-72L1381-72Q1431-120 1472.5-191Q1514-262 1555.5-343.5Q1597-425 1645.5-507Q1694-589 1758-661L1758-661L1816-726Q1779-732 1739-735.5Q1699-739 1656-739L1656-739Q1597-739 1527.5-729Q1458-719 1389.5-698Q1321-677 1264.5-645Q1208-613 1174-569Q1140-525 1140-468L1140-468Q1140-429 1157.5-406Q1175-383 1201.5-372.5Q1228-362 1255-362L1255-362Q1300-362 1331-382.5Q1362-403 1377.5-430Q1393-457 1393-478L1393-478Q1393-485 1403-485L1403-485Q1413-485 1413-469L1413-469Q1413-428 1388-398Q1363-368 1325.5-352Q1288-336 1250-336L1250-336Q1215-336 1178.5-353Q1142-370 1118-404Q1094-438 1094-488L1094-488Q1094-548 1128-594.5Q1162-641 1219-674Q1276-707 1346-728.5Q1416-750 1487.5-760Q1559-770 1622-770L1622-770Q1680-770 1735.5-764.5Q1791-759 1840-748L1840-748Q1854-760 1868.5-769Q1883-778 1895-783L1895-783Q1906-788 1913-788L1913-788Q1921-788 1921-782L1921-782Q1921-779 1910-771L1910-771Q1897-761 1887.5-752.5Q1878-744 1876-740L1876-740Q1978-714 2041.5-668.5Q2105-623 2105-561L2105-561Q2105-510 2070-471.5Q2035-433 1978.5-411Q1922-389 1858-386L1858-386Q1948-357 2001.5-311Q2055-265 2055-194L2055-194Q2055-141 2024.5-98Q1994-55 1943.5-24.5Q1893 6 1833 22.5Q1773 39 1714 39L1714 39Q1621 39 1549.5 20Q1478 1 1401-34L1401-34Q1304 39 1190 39ZM1700 10L1700 10Q1762 10 1813-9Q1864-28 1901.5-59Q1939-90 1959.5-128Q1980-166 1980-203L1980-203Q1980-238 1959-270.5Q1938-303 1893-325L1893-325Q1835-354 1791-365.5Q1747-377 1721-387L1721-387Q1711-392 1708-394Q1705-396 1705-398L1705-398Q1705-408 1715-414Q1725-420 1738-420L1738-420Q1758-420 1781-417Q1804-414 1830-414L1830-414Q1895-414 1942-440Q1989-466 2014.5-505Q2040-544 2040-582L2040-582Q2040-625 2002-657.5Q1964-690 1864-716L1864-716Q1814-647 1764-561.5Q1714-476 1664-388.5Q1614-301 1563-223Q1512-145 1461-89L1461-89Q1449-76 1442-69.5Q1435-63 1423-52L1423-52Q1483-27 1555-8.5Q1627 10 1700 10ZM1170 8L1170 8Q1226 11 1272.5-5.5Q1319-22 1359-52L1359-52Q1335-64 1298-83Q1261-102 1223-116.5Q1185-131 1157-131L1157-131Q1120-131 1101-111.5Q1082-92 1082-67L1082-67Q1082-41 1104-17.5Q1126 6 1170 8Z" fill="#FDFCFA"></path></g></svg>